<svg width="174" height="19" viewBox="0 0 174 19" fill="none" xmlns="http://www.w3.org/2000/svg">
<path d="M4.98986 17.8994L0.642501 0.80307H3.96408L7.57873 15.8234H7.92066L11.5353 0.80307H14.8569L10.5095 17.8994H4.98986ZM17.0102 17.8994V5.78543H20.0875V17.8994H17.0102ZM18.5488 4.36888C17.9952 4.36888 17.523 4.18977 17.1323 3.83157C16.7578 3.47336 16.5705 3.00117 16.5705 2.41501C16.5705 1.82885 16.7578 1.35667 17.1323 0.998457C17.523 0.640248 17.9952 0.461143 18.5488 0.461143C19.1187 0.461143 19.5909 0.640248 19.9654 0.998457C20.3399 1.35667 20.5271 1.82885 20.5271 2.41501C20.5271 3.00117 20.3399 3.47336 19.9654 3.83157C19.5909 4.18977 19.1187 4.36888 18.5488 4.36888ZM23.4976 17.8994V5.78543H26.5261V7.37295H26.9657C27.1611 6.94961 27.5275 6.5507 28.0648 6.17621C28.6021 5.78543 29.4162 5.59005 30.5071 5.59005C31.4515 5.59005 32.2737 5.80986 32.9739 6.24948C33.6903 6.67281 34.2439 7.26712 34.6346 8.03238C35.0254 8.78136 35.2208 9.6606 35.2208 10.6701V17.8994H32.1435V10.9143C32.1435 10.0025 31.9155 9.31868 31.4596 8.86278C31.02 8.40687 30.385 8.17892 29.5546 8.17892C28.6102 8.17892 27.8775 8.49642 27.3565 9.13143C26.8355 9.75016 26.5749 10.6213 26.5749 11.7447V17.8994H23.4976ZM38.5475 17.8994V5.78543H41.6249V17.8994H38.5475ZM38.23 4.41773L40.0374 0.80307H43.5055L40.9166 4.41773H38.23ZM50.7256 18.2413C49.5533 18.2413 48.4868 17.9971 47.5262 17.5086C46.5818 17.0202 45.8328 16.3119 45.2792 15.3838C44.7256 14.4557 44.4488 13.3322 44.4488 12.0134V11.6715C44.4488 10.3526 44.7256 9.22913 45.2792 8.30104C45.8328 7.37295 46.5818 6.66467 47.5262 6.17621C48.4868 5.68774 49.5533 5.44351 50.7256 5.44351C51.8817 5.44351 52.8749 5.64703 53.7053 6.05409C54.5357 6.46115 55.2032 7.02288 55.708 7.7393C56.229 8.43944 56.5709 9.23727 56.7338 10.1328L53.7541 10.7678C53.689 10.2793 53.5425 9.83971 53.3145 9.44894C53.0865 9.05816 52.7609 8.7488 52.3376 8.52085C51.9305 8.2929 51.4176 8.17892 50.7989 8.17892C50.1802 8.17892 49.6184 8.31732 49.1137 8.59412C48.6252 8.85463 48.2344 9.25355 47.9414 9.79086C47.6646 10.3119 47.5262 10.955 47.5262 11.7203V11.9645C47.5262 12.7298 47.6646 13.3811 47.9414 13.9184C48.2344 14.4394 48.6252 14.8384 49.1137 15.1152C49.6184 15.3757 50.1802 15.5059 50.7989 15.5059C51.727 15.5059 52.4271 15.2698 52.8993 14.7976C53.3878 14.3092 53.6971 13.6742 53.8274 12.8926L56.807 13.6009C56.5954 14.4639 56.229 15.2536 55.708 15.97C55.2032 16.6701 54.5357 17.2237 53.7053 17.6308C52.8749 18.0378 51.8817 18.2413 50.7256 18.2413ZM59.3455 17.8994V5.78543H62.4229V17.8994H59.3455ZM60.8842 4.36888C60.3306 4.36888 59.8584 4.18977 59.4677 3.83157C59.0932 3.47336 58.9059 3.00117 58.9059 2.41501C58.9059 1.82885 59.0932 1.35667 59.4677 0.998457C59.8584 0.640248 60.3306 0.461143 60.8842 0.461143C61.4541 0.461143 61.9263 0.640248 62.3008 0.998457C62.6753 1.35667 62.8625 1.82885 62.8625 2.41501C62.8625 3.00117 62.6753 3.47336 62.3008 3.83157C61.9263 4.18977 61.4541 4.36888 60.8842 4.36888ZM70.449 18.0948C69.5046 18.0948 68.6742 17.8831 67.9578 17.4598C67.2577 17.0202 66.7122 16.4177 66.3215 15.6525C65.9307 14.8872 65.7353 14.008 65.7353 13.0147V5.78543H68.8126V12.7705C68.8126 13.6823 69.0325 14.3662 69.4721 14.8221C69.928 15.278 70.5711 15.5059 71.4015 15.5059C72.3459 15.5059 73.0786 15.1966 73.5996 14.5778C74.1207 13.9428 74.3812 13.0636 74.3812 11.9401V5.78543H77.4585V17.8994H74.43V16.3119H73.9904C73.795 16.719 73.4287 17.1179 72.8913 17.5086C72.354 17.8994 71.5399 18.0948 70.449 18.0948ZM85.9141 18.2413C84.3348 18.2413 83.0403 17.8994 82.0308 17.2156C81.0213 16.5317 80.4107 15.5548 80.1991 14.2848L83.0322 13.5521C83.1462 14.1219 83.3334 14.5697 83.5939 14.8953C83.8707 15.221 84.2045 15.4571 84.5953 15.6036C85.0023 15.7339 85.442 15.799 85.9141 15.799C86.6306 15.799 87.1597 15.6769 87.5017 15.4327C87.8436 15.1721 88.0145 14.8546 88.0145 14.4801C88.0145 14.1057 87.8517 13.8207 87.5261 13.6253C87.2004 13.4137 86.6794 13.2427 85.963 13.1124L85.2791 12.9903C84.4325 12.8275 83.659 12.6077 82.9589 12.3309C82.2588 12.0378 81.697 11.6389 81.2737 11.1341C80.8504 10.6294 80.6387 9.97811 80.6387 9.18028C80.6387 7.97539 81.0783 7.05545 81.9576 6.42044C82.8368 5.76915 83.9928 5.44351 85.4257 5.44351C86.7771 5.44351 87.9006 5.74473 88.7961 6.34717C89.6916 6.94961 90.2778 7.7393 90.5546 8.71623L87.697 9.59548C87.5668 8.97675 87.2981 8.53713 86.8911 8.27661C86.5003 8.0161 86.0118 7.88584 85.4257 7.88584C84.8395 7.88584 84.3917 7.99168 84.0824 8.20334C83.773 8.39873 83.6183 8.67553 83.6183 9.03374C83.6183 9.42451 83.7812 9.71759 84.1068 9.91298C84.4325 10.0921 84.8721 10.2305 85.4257 10.3282L86.1095 10.4503C87.0213 10.6131 87.8436 10.8329 88.5763 11.1097C89.3253 11.3702 89.9114 11.7529 90.3348 12.2576C90.7744 12.7461 90.9942 13.4137 90.9942 14.2603C90.9942 15.5303 90.5302 16.5154 89.6021 17.2156C88.6903 17.8994 87.461 18.2413 85.9141 18.2413ZM105.729 18.2413C104.41 18.2413 103.246 18.0052 102.237 17.5331C101.227 17.0609 100.438 16.3852 99.8677 15.5059C99.2978 14.6267 99.0129 13.5683 99.0129 12.3309V11.647H102.188V12.3309C102.188 13.3567 102.505 14.1301 103.14 14.6511C103.775 15.1559 104.638 15.4082 105.729 15.4082C106.836 15.4082 107.659 15.1884 108.196 14.7488C108.75 14.3092 109.026 13.7474 109.026 13.0636C109.026 12.5914 108.888 12.2088 108.611 11.9157C108.351 11.6226 107.96 11.3865 107.439 11.2074C106.934 11.012 106.315 10.8329 105.583 10.6701L105.021 10.548C103.849 10.2875 102.839 9.96183 101.993 9.57105C101.162 9.164 100.519 8.63482 100.063 7.98353C99.6235 7.33225 99.4036 6.48557 99.4036 5.44351C99.4036 4.40144 99.6479 3.51406 100.136 2.78136C100.641 2.03238 101.341 1.4625 102.237 1.07173C103.149 0.664671 104.215 0.461143 105.436 0.461143C106.657 0.461143 107.74 0.672812 108.685 1.09615C109.645 1.50321 110.394 2.12193 110.931 2.95232C111.485 3.76644 111.762 4.79222 111.762 6.02967V6.76237H108.587V6.02967C108.587 5.37838 108.457 4.85735 108.196 4.46657C107.952 4.05952 107.594 3.76644 107.121 3.58733C106.649 3.39194 106.088 3.29425 105.436 3.29425C104.459 3.29425 103.735 3.4815 103.263 3.85599C102.807 4.2142 102.579 4.71081 102.579 5.34581C102.579 5.76915 102.685 6.12736 102.896 6.42044C103.124 6.71352 103.458 6.95775 103.898 7.15314C104.337 7.34853 104.899 7.51949 105.583 7.66603L106.144 7.78815C107.366 8.04866 108.424 8.38245 109.32 8.7895C110.231 9.19656 110.94 9.73387 111.444 10.4014C111.949 11.069 112.201 11.9238 112.201 12.9659C112.201 14.008 111.933 14.9279 111.396 15.7257C110.874 16.5073 110.125 17.126 109.149 17.5819C108.188 18.0215 107.048 18.2413 105.729 18.2413ZM114.704 17.8994V0.80307H117.781V17.8994H114.704ZM124.952 18.2413C124.089 18.2413 123.316 18.0948 122.632 17.8017C121.948 17.4924 121.403 17.0527 120.996 16.4829C120.605 15.8967 120.409 15.1884 120.409 14.358C120.409 13.5276 120.605 12.8356 120.996 12.282C121.403 11.7122 121.956 11.2888 122.656 11.012C123.373 10.7189 124.187 10.5724 125.099 10.5724H128.42V9.88856C128.42 9.31868 128.241 8.85463 127.883 8.49642C127.525 8.12193 126.955 7.93469 126.173 7.93469C125.408 7.93469 124.838 8.11379 124.464 8.472C124.089 8.81393 123.845 9.26169 123.731 9.81529L120.898 8.86278C121.093 8.24405 121.403 7.68231 121.826 7.17756C122.266 6.65653 122.844 6.24134 123.56 5.93197C124.293 5.60633 125.18 5.44351 126.222 5.44351C127.818 5.44351 129.08 5.84242 130.008 6.64025C130.936 7.43808 131.4 8.59412 131.4 10.1084V14.6267C131.4 15.1152 131.628 15.3594 132.084 15.3594H133.061V17.8994H131.009C130.407 17.8994 129.91 17.7529 129.519 17.4598C129.129 17.1667 128.933 16.7759 128.933 16.2875V16.263H128.469C128.404 16.4584 128.257 16.719 128.03 17.0446C127.802 17.354 127.443 17.6308 126.955 17.875C126.466 18.1192 125.799 18.2413 124.952 18.2413ZM125.489 15.7502C126.352 15.7502 127.053 15.5141 127.59 15.0419C128.144 14.5534 128.42 13.9103 128.42 13.1124V12.8682H125.319C124.749 12.8682 124.301 12.9903 123.975 13.2346C123.65 13.4788 123.487 13.8207 123.487 14.2603C123.487 14.7 123.658 15.0582 124 15.335C124.342 15.6118 124.838 15.7502 125.489 15.7502ZM137.159 17.8994L133.3 5.78543H136.573L139.382 15.6525H139.821L142.63 5.78543H145.903L142.044 17.8994H137.159ZM153.406 18.2413C152.201 18.2413 151.118 17.9971 150.157 17.5086C149.197 17.0202 148.44 16.3119 147.886 15.3838C147.332 14.4557 147.056 13.3404 147.056 12.0378V11.647C147.056 10.3445 147.332 9.22913 147.886 8.30104C148.44 7.37295 149.197 6.66467 150.157 6.17621C151.118 5.68774 152.201 5.44351 153.406 5.44351C154.61 5.44351 155.693 5.68774 156.654 6.17621C157.615 6.66467 158.372 7.37295 158.925 8.30104C159.479 9.22913 159.756 10.3445 159.756 11.647V12.0378C159.756 13.3404 159.479 14.4557 158.925 15.3838C158.372 16.3119 157.615 17.0202 156.654 17.5086C155.693 17.9971 154.61 18.2413 153.406 18.2413ZM153.406 15.5059C154.35 15.5059 155.131 15.2047 155.75 14.6023C156.369 13.9835 156.678 13.1043 156.678 11.9645V11.7203C156.678 10.5806 156.369 9.70945 155.75 9.10701C155.148 8.48828 154.366 8.17892 153.406 8.17892C152.461 8.17892 151.68 8.48828 151.061 9.10701C150.442 9.70945 150.133 10.5806 150.133 11.7203V11.9645C150.133 13.1043 150.442 13.9835 151.061 14.6023C151.68 15.2047 152.461 15.5059 153.406 15.5059ZM164.778 17.8994L160.92 5.78543H164.192L167.001 15.6525H167.441L170.249 5.78543H173.522L169.663 17.8994H164.778Z" fill="black"/>
</svg>
