<svg width="305" height="32" viewBox="0 0 305 32" fill="none" xmlns="http://www.w3.org/2000/svg">
<path d="M8.24578 31L0.757265 1.55079H6.47883L12.7052 27.424H13.2942L19.5206 1.55079H25.2422L17.7537 31H8.24578ZM29.372 31V10.1331H34.6728V31H29.372ZM32.0224 7.69305C31.0688 7.69305 30.2554 7.38454 29.5823 6.76751C28.9372 6.15047 28.6147 5.33711 28.6147 4.32743C28.6147 3.31774 28.9372 2.50438 29.5823 1.88735C30.2554 1.27032 31.0688 0.961803 32.0224 0.961803C33.004 0.961803 33.8174 1.27032 34.4625 1.88735C35.1076 2.50438 35.4301 3.31774 35.4301 4.32743C35.4301 5.33711 35.1076 6.15047 34.4625 6.76751C33.8174 7.38454 33.004 7.69305 32.0224 7.69305ZM40.9676 31V10.1331H46.1843V12.8677H46.9416C47.2781 12.1385 47.9092 11.4513 48.8347 10.8063C49.7603 10.1331 51.1626 9.79657 53.0418 9.79657C54.6685 9.79657 56.0849 10.1752 57.2909 10.9325C58.5249 11.6617 59.4785 12.6854 60.1517 14.0036C60.8248 15.2938 61.1613 16.8083 61.1613 18.5472V31H55.8605V18.9679C55.8605 17.3973 55.4678 16.2193 54.6825 15.434C53.9253 14.6487 52.8314 14.256 51.401 14.256C49.7743 14.256 48.5122 14.8029 47.6147 15.8968C46.7172 16.9625 46.2685 18.463 46.2685 20.3983V31H40.9676ZM67.3125 31V10.1331H72.6133V31H67.3125ZM66.7656 7.77719L69.8788 1.55079H75.8528L71.3933 7.77719H66.7656ZM88.7105 31.589C86.6911 31.589 84.854 31.1683 83.1993 30.3269C81.5726 29.4855 80.2824 28.2654 79.3288 26.6668C78.3752 25.0681 77.8984 23.1329 77.8984 20.8611V20.2721C77.8984 18.0003 78.3752 16.065 79.3288 14.4664C80.2824 12.8677 81.5726 11.6477 83.1993 10.8063C84.854 9.96485 86.6911 9.54414 88.7105 9.54414C90.7018 9.54414 92.4127 9.89473 93.8431 10.5959C95.2735 11.2971 96.4234 12.2647 97.2928 13.4988C98.1903 14.7048 98.7793 16.0791 99.0598 17.6216L93.9272 18.7155C93.815 17.8741 93.5626 17.1168 93.1699 16.4437C92.7773 15.7706 92.2163 15.2377 91.4871 14.845C90.786 14.4523 89.9025 14.256 88.8367 14.256C87.7709 14.256 86.8033 14.4944 85.9339 14.9712C85.0924 15.42 84.4193 16.1071 83.9145 17.0327C83.4377 17.9302 83.1993 19.038 83.1993 20.3562V20.7769C83.1993 22.0951 83.4377 23.217 83.9145 24.1425C84.4193 25.04 85.0924 25.7272 85.9339 26.204C86.8033 26.6527 87.7709 26.8771 88.8367 26.8771C90.4354 26.8771 91.6414 26.4704 92.4547 25.6571C93.2962 24.8157 93.829 23.7218 94.0534 22.3756L99.186 23.5956C98.8214 25.0821 98.1903 26.4424 97.2928 27.6764C96.4234 28.8825 95.2735 29.8361 93.8431 30.5372C92.4127 31.2384 90.7018 31.589 88.7105 31.589ZM103.979 31V10.1331H109.28V31H103.979ZM106.63 7.69305C105.676 7.69305 104.863 7.38454 104.19 6.76751C103.545 6.15047 103.222 5.33711 103.222 4.32743C103.222 3.31774 103.545 2.50438 104.19 1.88735C104.863 1.27032 105.676 0.961803 106.63 0.961803C107.611 0.961803 108.425 1.27032 109.07 1.88735C109.715 2.50438 110.037 3.31774 110.037 4.32743C110.037 5.33711 109.715 6.15047 109.07 6.76751C108.425 7.38454 107.611 7.69305 106.63 7.69305ZM123.526 31.3366C121.9 31.3366 120.469 30.972 119.235 30.2427C118.029 29.4855 117.09 28.4477 116.416 27.1295C115.743 25.8113 115.407 24.2968 115.407 22.5859V10.1331H120.708V22.1652C120.708 23.7359 121.086 24.9138 121.843 25.6991C122.629 26.4845 123.737 26.8771 125.167 26.8771C126.794 26.8771 128.056 26.3442 128.953 25.2784C129.851 24.1846 130.3 22.6701 130.3 20.7348V10.1331H135.6V31H130.384V28.2654H129.626C129.29 28.9666 128.659 29.6538 127.733 30.3269C126.808 31 125.405 31.3366 123.526 31.3366ZM150.586 31.589C147.866 31.589 145.636 31 143.897 29.822C142.158 28.6441 141.107 26.9613 140.742 24.7736L145.622 23.5115C145.818 24.4931 146.141 25.2644 146.59 25.8254C147.066 26.3863 147.641 26.793 148.315 27.0454C149.016 27.2698 149.773 27.382 150.586 27.382C151.82 27.382 152.732 27.1716 153.321 26.7509C153.91 26.3021 154.204 25.7552 154.204 25.1102C154.204 24.4651 153.924 23.9743 153.363 23.6377C152.802 23.2731 151.905 22.9786 150.671 22.7542L149.493 22.5439C148.034 22.2634 146.702 21.8848 145.496 21.408C144.29 20.9031 143.322 20.216 142.593 19.3465C141.864 18.4771 141.499 17.3552 141.499 15.9809C141.499 13.9054 142.256 12.3208 143.771 11.227C145.286 10.1051 147.277 9.54414 149.745 9.54414C152.073 9.54414 154.008 10.063 155.551 11.1007C157.093 12.1385 158.103 13.4988 158.58 15.1816L153.657 16.6961C153.433 15.6303 152.97 14.8731 152.269 14.4243C151.596 13.9756 150.755 13.7512 149.745 13.7512C148.735 13.7512 147.964 13.9335 147.431 14.2981C146.898 14.6347 146.632 15.1114 146.632 15.7285C146.632 16.4016 146.912 16.9064 147.473 17.243C148.034 17.5515 148.791 17.7899 149.745 17.9582L150.923 18.1686C152.494 18.449 153.91 18.8277 155.172 19.3045C156.462 19.7532 157.472 20.4123 158.201 21.2818C158.958 22.1232 159.337 23.2731 159.337 24.7315C159.337 26.9192 158.538 28.616 156.939 29.822C155.368 31 153.251 31.589 150.586 31.589ZM185.56 31.589C183.288 31.589 181.283 31.1823 179.544 30.3689C177.805 29.5556 176.445 28.3916 175.463 26.8771C174.482 25.3626 173.991 23.5395 173.991 21.408V20.23H179.46V21.408C179.46 23.1749 180.007 24.5072 181.101 25.4046C182.195 26.2741 183.681 26.7088 185.56 26.7088C187.467 26.7088 188.884 26.3302 189.809 25.5729C190.763 24.8157 191.24 23.848 191.24 22.6701C191.24 21.8567 191.001 21.1976 190.525 20.6928C190.076 20.1879 189.403 19.7813 188.505 19.4727C187.636 19.1362 186.57 18.8277 185.308 18.5472L184.34 18.3368C182.321 17.8881 180.582 17.3272 179.124 16.654C177.693 15.9529 176.585 15.0413 175.8 13.9195C175.043 12.7976 174.664 11.3391 174.664 9.54414C174.664 7.74915 175.085 6.22059 175.926 4.95848C176.796 3.66833 178.002 2.68669 179.544 2.01356C181.115 1.31239 182.952 0.961803 185.055 0.961803C187.159 0.961803 189.024 1.32641 190.651 2.05563C192.306 2.7568 193.596 3.82258 194.521 5.25297C195.475 6.65532 195.952 8.42227 195.952 10.5538V11.8159H190.482V10.5538C190.482 9.43196 190.258 8.53446 189.809 7.86133C189.389 7.16016 188.772 6.65532 187.958 6.3468C187.145 6.01024 186.177 5.84196 185.055 5.84196C183.373 5.84196 182.125 6.1645 181.311 6.80957C180.526 7.42661 180.133 8.28204 180.133 9.37587C180.133 10.1051 180.316 10.7221 180.68 11.227C181.073 11.7318 181.648 12.1525 182.405 12.4891C183.162 12.8256 184.13 13.1201 185.308 13.3725L186.275 13.5829C188.379 14.0316 190.202 14.6066 191.745 15.3078C193.315 16.0089 194.535 16.9345 195.405 18.0844C196.274 19.2343 196.709 20.7068 196.709 22.5018C196.709 24.2968 196.246 25.8814 195.321 27.2557C194.423 28.602 193.133 29.6678 191.45 30.4531C189.795 31.2104 187.832 31.589 185.56 31.589ZM201.44 31V1.55079H206.74V31H201.44ZM219.514 31.589C218.027 31.589 216.695 31.3366 215.517 30.8317C214.339 30.2988 213.4 29.5416 212.699 28.5599C212.025 27.5502 211.689 26.3302 211.689 24.8998C211.689 23.4694 212.025 22.2774 212.699 21.3238C213.4 20.3422 214.353 19.613 215.559 19.1362C216.793 18.6313 218.196 18.3789 219.766 18.3789H225.488V17.2009C225.488 16.2193 225.179 15.42 224.562 14.8029C223.945 14.1579 222.964 13.8353 221.617 13.8353C220.299 13.8353 219.318 14.1438 218.673 14.7609C218.027 15.3498 217.607 16.1211 217.41 17.0747L212.53 15.434C212.867 14.3682 213.4 13.4006 214.129 12.5311C214.886 11.6336 215.882 10.9184 217.116 10.3856C218.378 9.82461 219.907 9.54414 221.702 9.54414C224.45 9.54414 226.624 10.2313 228.223 11.6056C229.821 12.9799 230.621 14.9712 230.621 17.5796V25.3626C230.621 26.204 231.013 26.6247 231.798 26.6247H233.481V31H229.947C228.91 31 228.054 30.7476 227.381 30.2427C226.708 29.7379 226.371 29.0648 226.371 28.2234V28.1813H225.572C225.46 28.5179 225.207 28.9666 224.815 29.5275C224.422 30.0604 223.805 30.5372 222.964 30.9579C222.122 31.3786 220.972 31.589 219.514 31.589ZM220.44 27.2978C221.926 27.2978 223.132 26.8911 224.058 26.0778C225.011 25.2364 225.488 24.1285 225.488 22.7542V22.3335H220.145C219.163 22.3335 218.392 22.5439 217.831 22.9646C217.27 23.3853 216.99 23.9743 216.99 24.7315C216.99 25.4888 217.284 26.1058 217.873 26.5826C218.462 27.0594 219.318 27.2978 220.44 27.2978ZM240.962 31L234.314 10.1331H239.952L244.79 27.1295H245.547L250.385 10.1331H256.023L249.376 31H240.962ZM269.368 31.589C267.292 31.589 265.427 31.1683 263.772 30.3269C262.117 29.4855 260.813 28.2654 259.86 26.6668C258.906 25.0681 258.429 23.1469 258.429 20.9031V20.23C258.429 17.9863 258.906 16.065 259.86 14.4664C260.813 12.8677 262.117 11.6477 263.772 10.8063C265.427 9.96485 267.292 9.54414 269.368 9.54414C271.443 9.54414 273.308 9.96485 274.963 10.8063C276.618 11.6477 277.922 12.8677 278.875 14.4664C279.829 16.065 280.306 17.9863 280.306 20.23V20.9031C280.306 23.1469 279.829 25.0681 278.875 26.6668C277.922 28.2654 276.618 29.4855 274.963 30.3269C273.308 31.1683 271.443 31.589 269.368 31.589ZM269.368 26.8771C270.994 26.8771 272.341 26.3582 273.406 25.3205C274.472 24.2547 275.005 22.7402 275.005 20.7769V20.3562C275.005 18.3929 274.472 16.8924 273.406 15.8547C272.369 14.7889 271.022 14.256 269.368 14.256C267.741 14.256 266.395 14.7889 265.329 15.8547C264.263 16.8924 263.73 18.3929 263.73 20.3562V20.7769C263.73 22.7402 264.263 24.2547 265.329 25.3205C266.395 26.3582 267.741 26.8771 269.368 26.8771ZM289.379 31L282.731 10.1331H288.369L293.207 27.1295H293.964L298.802 10.1331H304.44L297.793 31H289.379Z" fill="#297BE9"/>
</svg>
